<svg width="676" height="676" viewBox="0 0 676 676" fill="none" xmlns="http://www.w3.org/2000/svg">
<path d="M260.306 124.453C238.203 132.929 175.939 160.281 152.824 247.49C126.435 346.93 205.169 474.878 314.24 496.451C427.404 518.843 555.208 466.258 545.191 384.731C540.617 347.556 489.669 336.287 492.028 292.515C494.34 249.801 548.129 222.016 529.974 174.198C498.866 92.4785 353.005 88.8669 260.306 124.453Z" fill="#143CAB"/>
<path d="M531.659 337.382C531.659 307.911 513.553 250.029 453.07 252.677C439.924 194.506 412.186 177.074 362.731 177.074C321.799 177.074 305.571 210.831 301.863 209.338C249.952 188.727 201.797 235.438 212.343 289.66C185.376 292.502 164.284 316.29 164.284 345.231C164.284 345.376 164.284 345.472 164.284 345.617C164.429 364.542 179.26 379.71 197.367 379.71H490.92C512.83 379.71 531.081 361.652 531.611 338.827C531.659 338.345 531.659 337.864 531.659 337.382Z" fill="#5479F7"/>
<path d="M470.504 232.706C470.311 232.706 470.119 232.658 469.974 232.514C469.685 232.225 469.685 231.792 469.974 231.503L511.243 190.475C511.532 190.186 511.965 190.186 512.254 190.475C512.543 190.763 512.543 191.197 512.254 191.486L470.986 232.514C470.889 232.61 470.697 232.706 470.504 232.706Z" fill="white"/>
<path d="M461.209 227.457C461.065 227.457 460.968 227.408 460.872 227.36C460.535 227.168 460.39 226.734 460.583 226.397L473.681 203.475C473.874 203.138 474.307 202.994 474.644 203.186C474.981 203.379 475.126 203.812 474.933 204.149L461.835 227.071C461.739 227.312 461.45 227.457 461.209 227.457Z" fill="white"/>
<path d="M484.276 242.24C484.179 242.24 484.083 242.24 483.987 242.192L474.789 238.147C474.548 238.051 474.404 237.858 474.356 237.617C474.308 237.376 474.404 237.136 474.548 236.991L481.675 230.25C481.868 230.057 482.157 230.009 482.398 230.105C482.638 230.201 482.831 230.394 482.879 230.635L484.95 241.373C484.998 241.614 484.902 241.903 484.709 242.096C484.613 242.192 484.42 242.24 484.276 242.24ZM476.378 237.28L483.312 240.314L481.723 232.176L476.378 237.28Z" fill="white"/>
<path d="M171.89 470.593L169.627 486.532H163.848L163.559 470.882L171.89 470.593Z" fill="white"/>
<path d="M163.849 487.254C163.464 487.254 163.127 486.917 163.127 486.531L162.838 470.881C162.838 470.496 163.127 470.159 163.512 470.159L171.843 469.87C172.036 469.87 172.277 469.966 172.421 470.11C172.565 470.255 172.614 470.496 172.614 470.688L170.35 486.628C170.302 486.965 170.013 487.254 169.628 487.254H163.849ZM164.283 471.603L164.524 485.857H169.002L171.073 471.411L164.283 471.603Z" fill="black"/>
<path d="M169.821 501.749C167.558 501.99 164.139 502.086 159.612 501.701C157.975 501.557 156.867 500.064 157.108 498.475C157.83 494.141 159.757 486.532 162.887 483.017L164.428 485.184L165.343 482.921C165.487 482.68 169.339 482.535 169.436 482.969L169.677 485.184L171.843 482.728L171.747 490.77C171.747 491.637 171.795 492.552 171.988 493.418L172.566 496.211C172.903 497.897 172.47 499.63 171.314 500.883C170.832 501.364 170.303 501.701 169.821 501.749Z" fill="white"/>
<path d="M165.44 502.662C163.803 502.662 161.876 502.566 159.565 502.373C158.602 502.277 157.735 501.796 157.109 501.025C156.483 500.255 156.242 499.243 156.387 498.28C156.579 497.124 158.313 487.012 162.31 482.485C162.454 482.341 162.647 482.245 162.888 482.245C163.129 482.245 163.321 482.389 163.417 482.534L164.188 483.641L164.621 482.63C164.621 482.582 164.669 482.582 164.669 482.534C165.199 481.667 169.052 482.052 169.052 482.052C169.292 482.1 169.967 482.196 170.063 482.822V482.871L170.111 483.448L171.219 482.196C171.411 481.956 171.748 481.907 172.037 482.004C172.326 482.1 172.519 482.389 172.519 482.678L172.422 490.72C172.422 491.538 172.471 492.405 172.663 493.224L173.241 496.017C173.626 497.991 173.097 499.966 171.796 501.362C171.17 502.036 170.544 502.373 169.918 502.47C168.811 502.566 167.366 502.662 165.44 502.662ZM162.84 484.219C160.143 487.927 158.457 494.861 157.831 498.569C157.735 499.147 157.88 499.725 158.265 500.206C158.602 500.64 159.132 500.929 159.71 500.977C164.525 501.41 167.848 501.266 169.774 501.025C170.015 500.977 170.4 500.736 170.785 500.351C171.748 499.291 172.182 497.799 171.845 496.306L171.267 493.513C171.074 492.598 170.978 491.635 170.978 490.72L171.074 484.604L170.159 485.615C169.967 485.808 169.678 485.904 169.389 485.808C169.1 485.712 168.907 485.471 168.907 485.182L168.715 483.4C168.04 483.304 166.499 483.352 165.873 483.448L165.103 485.375C165.007 485.615 164.766 485.808 164.525 485.808C164.284 485.856 163.995 485.712 163.851 485.519L162.84 484.219Z" fill="black"/>
<path d="M165.682 499.822C164.092 499.822 162.07 499.678 159.855 499.293C159.47 499.244 159.181 498.859 159.277 498.474C159.325 498.089 159.71 497.8 160.096 497.896C165.682 498.859 169.582 498.089 169.63 498.089C170.016 497.992 170.401 498.281 170.497 498.667C170.593 499.052 170.304 499.437 169.919 499.533C169.823 499.533 168.234 499.822 165.682 499.822Z" fill="black"/>
<path d="M167.558 493.755H162.309C161.924 493.755 161.587 493.418 161.587 493.032C161.587 492.647 161.924 492.31 162.309 492.31H167.558C167.944 492.31 168.281 492.647 168.281 493.032C168.281 493.418 167.944 493.755 167.558 493.755Z" fill="black"/>
<path d="M213.548 472.035L215.57 490.574L223.371 492.212L222.938 470.446L213.548 472.035Z" fill="white"/>
<path d="M223.37 492.935C223.322 492.935 223.274 492.935 223.226 492.935L215.425 491.297C215.136 491.249 214.895 490.96 214.847 490.671L212.824 472.132C212.776 471.746 213.065 471.409 213.402 471.361L222.792 469.772C222.985 469.724 223.226 469.772 223.37 469.916C223.515 470.061 223.611 470.253 223.611 470.446L224.093 492.212C224.093 492.453 223.996 492.646 223.852 492.79C223.707 492.886 223.563 492.935 223.37 492.935ZM216.243 489.997L222.648 491.345L222.215 471.313L214.317 472.613L216.243 489.997Z" fill="black"/>
<path d="M212.292 499.436C212.099 496.161 212.099 490.19 214.074 487.301L220.334 489.516V488.216C220.334 487.782 220.623 487.445 221.008 487.397L224.475 487.205C225.775 487.108 227.076 487.397 228.279 487.975C231.795 489.709 242.437 494.091 243.93 499.051C244.363 500.495 243.207 501.988 241.715 502.036C238.199 502.133 229.772 502.229 214.652 501.747C213.351 501.699 212.34 500.688 212.292 499.436Z" fill="white"/>
<path d="M234.686 502.854C230.015 502.854 223.466 502.758 214.605 502.469C212.968 502.42 211.668 501.12 211.571 499.483C211.379 496.112 211.427 489.948 213.497 486.915C213.69 486.626 214.027 486.529 214.316 486.626L219.613 488.504V488.215C219.613 487.396 220.239 486.722 221.01 486.674L224.477 486.481C225.873 486.385 227.318 486.674 228.618 487.348C229.052 487.541 229.533 487.781 230.159 488.07C234.734 490.237 243.257 494.186 244.654 498.905C244.895 499.772 244.75 500.735 244.22 501.506C243.642 502.276 242.728 502.758 241.764 502.806C240.175 502.806 237.912 502.854 234.686 502.854ZM214.412 488.167C213.257 490.285 212.775 494.33 213.016 499.387C213.064 500.254 213.786 500.976 214.653 501.024C229.629 501.554 238.008 501.457 241.668 501.313C242.198 501.313 242.679 501.024 243.016 500.591C243.305 500.205 243.402 499.724 243.257 499.242C242.053 495.197 233.626 491.249 229.533 489.322C228.955 489.033 228.426 488.793 227.992 488.6C226.933 488.07 225.729 487.83 224.573 487.878L221.106 488.07C221.106 488.07 221.106 488.118 221.106 488.167V489.515C221.106 489.756 221.01 489.948 220.817 490.093C220.624 490.237 220.384 490.285 220.143 490.189L214.412 488.167Z" fill="black"/>
<path d="M232.278 499.774C227.847 499.774 221.828 499.581 215.279 498.81C214.894 498.762 214.605 498.425 214.653 497.992C214.701 497.607 215.038 497.318 215.472 497.366C228.762 498.907 239.694 498.088 239.838 498.088C240.223 498.04 240.56 498.377 240.609 498.762C240.657 499.148 240.32 499.485 239.934 499.533C239.886 499.533 236.949 499.774 232.278 499.774Z" fill="black"/>
<path d="M230.351 494.428C230.207 494.428 230.063 494.38 229.918 494.283L223.899 489.949C223.562 489.708 223.513 489.275 223.754 488.938C223.995 488.601 224.428 488.553 224.765 488.794L230.785 493.128C231.122 493.368 231.17 493.802 230.929 494.139C230.785 494.331 230.544 494.428 230.351 494.428Z" fill="black"/>
<path d="M215.955 351.649C215.955 351.649 227.127 428.408 224.767 479.596L221.3 479.934C219.422 480.126 217.544 480.174 215.666 480.078L212.343 479.934C212.343 479.934 199.004 402.115 192.359 389.209C192.359 389.209 174.252 458.408 173.53 477.141C173.53 477.141 165.488 477.959 162.262 476.803C160.528 458.697 160.047 439.965 159.95 428.215C159.709 394.555 162.936 379.29 164.669 372.018C166.307 365.373 168.04 359.931 169.292 356.271L173.53 344.233L215.955 351.649Z" fill="#99B9FF"/>
<path d="M217.543 480.849C216.917 480.849 216.243 480.849 215.617 480.801L211.716 480.608L211.62 480.03C211.476 479.308 199.292 408.279 192.503 391.329C189.517 402.789 174.83 460.431 174.252 477.141V477.767L173.626 477.815C173.289 477.863 165.391 478.634 162.069 477.43L161.635 477.285L161.587 476.852C159.757 457.494 159.372 438.087 159.276 428.215C159.035 396.192 161.876 380.734 164.043 371.874C165.343 366.529 166.884 361.232 168.666 356.079L173.096 343.414L216.676 351.023L216.773 351.553C216.869 352.323 227.945 428.938 225.585 479.645L225.537 480.271L221.444 480.704C220.095 480.801 218.795 480.849 217.543 480.849ZM212.968 479.26L215.713 479.404C217.543 479.5 219.421 479.452 221.251 479.26L224.14 478.971C226.259 430.575 216.339 359.065 215.376 352.275L174.059 345.052L170.014 356.561C168.232 361.665 166.691 366.914 165.391 372.211C163.272 380.975 160.431 396.337 160.672 428.215C160.72 437.991 161.154 457.108 162.935 476.226C165.632 476.948 171.025 476.611 172.807 476.467C173.867 457.012 190.865 391.81 191.636 389.017L192.117 387.187L192.984 388.873C199.389 401.297 211.62 471.603 212.968 479.26Z" fill="black"/>
<path d="M191.685 392.147C191.636 392.147 191.54 392.147 191.492 392.099C191.107 392.002 190.866 391.617 191.01 391.232L192.888 384.442C193.466 382.323 195.152 380.782 197.271 380.349L199.004 380.012C199.389 379.916 199.775 380.204 199.871 380.59C199.967 380.975 199.678 381.36 199.293 381.456L197.559 381.794C195.97 382.131 194.718 383.286 194.285 384.876L192.407 391.665C192.311 391.954 192.022 392.147 191.685 392.147Z" fill="black"/>
<path d="M167.126 379.532C166.789 379.532 166.452 379.291 166.404 378.906C166.355 378.521 166.596 378.136 166.981 378.088C176.516 376.498 178.394 369.275 178.49 368.986C178.587 368.601 178.972 368.36 179.357 368.457C179.743 368.553 179.983 368.938 179.887 369.323C179.791 369.66 177.72 377.799 167.222 379.532C167.174 379.532 167.174 379.532 167.126 379.532Z" fill="black"/>
<path d="M216.485 374.523C216.389 374.523 216.292 374.523 216.196 374.475C209.984 371.778 210.128 366.048 210.128 365.807C210.128 365.422 210.466 365.085 210.899 365.133C211.284 365.133 211.621 365.47 211.573 365.903C211.573 366.096 211.477 370.912 216.774 373.175C217.159 373.319 217.304 373.753 217.159 374.138C217.015 374.331 216.774 374.523 216.485 374.523Z" fill="black"/>
<path d="M215.088 287.747C207.672 286.928 191.877 285.435 181.042 286.399C177.768 286.687 173.049 288.71 170.545 290.877C163.177 297.233 149.356 311.198 147.045 327.956C146.708 330.412 148.297 332.676 150.705 333.253L163.514 336.095C163.514 336.095 158.41 356.223 158.843 359.691C159.276 363.158 169.822 369.081 183.065 364.217C193.37 360.413 207.961 357.427 217.255 360.702C217.351 360.75 218.218 367.877 218.314 367.877C221.3 368.31 224.286 367.155 224.238 362.965L222.841 341.247L239.792 338.984L241.284 338.502C245.859 336.961 248.219 331.905 246.485 327.427C242.488 317.266 236.469 300.845 225.345 291.792C222.889 289.769 218.122 288.132 215.088 287.747Z" fill="black"/>
<path d="M207.383 354.635H233.916C235.072 354.635 236.083 353.864 236.372 352.708L245.57 315.725C245.955 314.136 244.751 312.595 243.114 312.595H216.581C215.425 312.595 214.414 313.366 214.125 314.521L204.927 351.504C204.542 353.094 205.746 354.635 207.383 354.635Z" fill="#99B9FF"/>
<path d="M241.189 331.52L240.274 335.276L237.048 334.217C235.266 333.639 233.581 332.82 231.992 331.857L230.162 330.749C228.765 329.931 226.984 330.557 226.454 332.098C225.298 335.324 225.539 340.718 237.096 344.088C243.453 345.966 245.283 337.78 244.464 333.254C244.271 332.098 243.693 331.375 243.116 330.894C242.441 330.316 241.382 330.653 241.189 331.52Z" fill="white"/>
<path d="M238.924 345.052C238.298 345.052 237.624 344.955 236.949 344.763C231.267 343.125 227.656 340.766 226.115 337.828C225.2 335.998 225.055 333.928 225.826 331.857C226.163 330.942 226.885 330.22 227.8 329.883C228.715 329.546 229.726 329.642 230.545 330.172L232.375 331.279C233.916 332.194 235.553 332.965 237.287 333.542L239.742 334.361L240.465 331.375C240.609 330.749 241.091 330.22 241.717 330.027C242.343 329.835 243.017 329.931 243.547 330.364C244.413 331.038 244.943 332.001 245.184 333.157C245.81 336.528 245.039 341.392 242.439 343.751C241.476 344.618 240.272 345.052 238.924 345.052ZM228.859 331.087C228.667 331.087 228.474 331.135 228.233 331.183C227.704 331.375 227.318 331.761 227.126 332.29C226.5 334.024 226.596 335.661 227.367 337.154C228.667 339.754 232.038 341.825 237.287 343.366C238.972 343.848 240.368 343.607 241.476 342.596C243.595 340.718 244.317 336.335 243.739 333.35C243.595 332.531 243.21 331.905 242.632 331.424C242.439 331.279 242.246 331.327 242.15 331.327C242.054 331.375 241.861 331.424 241.813 331.664L240.946 335.372C240.898 335.565 240.754 335.758 240.609 335.854C240.417 335.95 240.224 335.95 240.031 335.902L236.805 334.843C234.975 334.217 233.241 333.446 231.604 332.435L229.774 331.327C229.534 331.183 229.196 331.087 228.859 331.087Z" fill="black"/>
<path d="M179.84 310.139C178.491 311.487 176.999 312.643 175.361 313.606C169.775 316.784 156.485 324.441 153.162 327.282C148.924 330.893 146.95 332.242 150.321 341.488C155.859 356.608 181.573 317.843 181.573 317.843C181.573 317.843 189.134 319.192 190.819 312.595C190.819 312.595 194.768 313.317 196.405 312.643C197.657 312.113 197.609 309.946 195.924 309.705L185.089 307.635C183.596 307.346 182.055 307.875 180.995 308.935L179.84 310.139Z" fill="white"/>
<path d="M154.413 345.678C154.221 345.678 154.028 345.678 153.835 345.63C151.909 345.389 150.513 344.089 149.646 341.681C146.323 332.58 147.96 330.701 152.342 326.994L152.728 326.656C156.099 323.815 169.438 316.062 175.023 312.884C176.613 311.969 178.057 310.862 179.357 309.561L180.513 308.358C181.765 307.105 183.499 306.528 185.232 306.817L196.115 308.839C197.127 308.984 197.897 309.754 198.042 310.765C198.186 311.777 197.656 312.74 196.741 313.173C195.297 313.799 192.648 313.51 191.396 313.317C189.566 318.855 183.691 318.711 181.958 318.518C179.646 321.985 163.37 345.678 154.413 345.678ZM179.839 310.139L180.369 310.621C178.972 312.017 177.431 313.221 175.746 314.184C170.208 317.363 156.917 324.971 153.691 327.764L153.306 328.101C149.405 331.424 147.912 332.676 151.042 341.199C151.716 343.077 152.728 344.04 154.076 344.185C154.221 344.185 154.365 344.233 154.509 344.233C161.636 344.233 176.035 324.971 181.043 317.411C181.187 317.17 181.476 317.025 181.765 317.122C182.054 317.17 188.7 318.277 190.192 312.403C190.289 312.017 190.626 311.825 191.011 311.873C192.07 312.065 195.008 312.451 196.164 311.969C196.501 311.825 196.645 311.391 196.597 311.102C196.549 310.862 196.452 310.524 195.875 310.428L184.943 308.406C183.691 308.165 182.391 308.598 181.476 309.513L180.321 310.717L179.839 310.139Z" fill="black"/>
<path d="M205.069 273.541L205.888 284.858C206.081 286.35 207.14 287.554 208.585 287.939L212.582 288.999L209.981 290.973C204.251 295.355 196.353 295.355 190.623 290.973L186.53 287.891L191.49 286.784C192.886 286.447 193.994 285.339 194.283 283.894L196.45 268.918L205.069 273.541Z" fill="white"/>
<path d="M200.256 294.923C196.692 294.923 193.129 293.815 190.143 291.552L186.05 288.47C185.809 288.277 185.713 288.037 185.761 287.748C185.809 287.459 186.05 287.266 186.291 287.218L191.251 286.11C192.406 285.87 193.273 284.955 193.466 283.799L195.633 268.823C195.681 268.582 195.825 268.389 196.018 268.293C196.211 268.197 196.5 268.197 196.692 268.293L205.36 272.964C205.601 273.06 205.697 273.301 205.745 273.542L206.564 284.858C206.709 286.014 207.527 286.977 208.683 287.266L212.68 288.325C212.969 288.374 213.161 288.614 213.209 288.903C213.258 289.192 213.161 289.433 212.92 289.626L210.32 291.6C207.383 293.767 203.819 294.923 200.256 294.923ZM188.169 288.229L191.01 290.396C196.451 294.537 204.06 294.537 209.502 290.396L210.898 289.337L208.346 288.663C206.612 288.229 205.36 286.784 205.119 285.003L204.349 274.023L196.933 270.027L194.911 283.991C194.573 285.725 193.273 287.122 191.588 287.459L188.169 288.229Z" fill="black"/>
<path d="M217.93 257.795C215.185 256.35 217.4 260.829 208.443 253.076C204.88 249.994 204.735 255.773 203.821 254.954C200.402 252.016 200.498 252.113 198.331 251.728C196.886 251.487 195.008 253.461 194.43 255.339C193.66 257.795 195.297 259.288 194.767 264.97C194.382 268.967 193.13 270.941 194.286 272.049C195.442 273.205 197.32 271.808 198.716 272.964C200.498 274.457 198.475 277.779 199.776 280.139C200.594 281.632 203.291 283.365 208.973 283.221C209.888 283.221 210.659 282.499 210.803 281.632C210.996 280.476 211.236 278.983 211.333 277.539C211.862 270.749 210.37 268.485 211.814 267.282C214.029 265.5 217.786 268.823 219.375 267.233C221.012 265.644 221.638 259.769 217.93 257.795Z" fill="black"/>
<path d="M204.398 261.599L204.494 263.477C204.542 264.344 204.542 265.211 204.494 266.126C204.35 267.763 204.157 270.604 204.157 272.193C204.157 274.553 211.38 274.986 211.38 274.986L212.295 273.975L213.162 274.023C213.307 274.023 213.499 274.023 213.644 273.927C214.029 273.734 214.173 273.349 214.125 272.964C213.788 270.893 213.162 266.318 213.836 262.803C213.836 262.755 209.84 259.48 204.398 261.599Z" fill="white"/>
<path d="M211.381 275.661C209.503 275.565 203.435 274.939 203.435 272.146C203.435 270.508 203.628 267.619 203.772 266.03C203.82 265.211 203.82 264.345 203.772 263.478L203.676 261.6C203.676 261.263 203.82 260.974 204.157 260.877C209.936 258.614 214.174 261.985 214.318 262.129C214.511 262.274 214.607 262.563 214.559 262.804C213.885 266.271 214.559 270.894 214.848 272.724C214.944 273.398 214.607 274.12 213.981 274.457C213.74 274.602 213.451 274.65 213.162 274.65H212.633L211.958 275.42C211.814 275.565 211.573 275.661 211.381 275.661ZM205.12 262.081L205.217 263.381C205.265 264.296 205.265 265.211 205.217 266.126C205.072 267.667 204.88 270.557 204.88 272.146C204.88 273.109 208.106 273.976 211.092 274.216L211.766 273.446C211.91 273.301 212.103 273.205 212.344 273.205L213.211 273.253C213.259 273.253 213.307 273.253 213.307 273.253C213.403 273.205 213.403 273.109 213.403 273.061C213.018 270.797 212.488 266.608 213.066 263.093C212.055 262.418 209.069 260.781 205.12 262.081Z" fill="black"/>
<path d="M203.098 267.33C203.098 267.33 202.809 262.852 200.835 263.43C198.812 264.008 199.246 268.92 203.098 267.33Z" fill="white"/>
<path d="M409.227 250.988C409.083 250.988 408.938 250.94 408.794 250.844C408.457 250.603 408.409 250.17 408.65 249.833L412.02 245.162C412.261 244.824 412.695 244.776 413.032 245.017C413.369 245.258 413.417 245.691 413.176 246.028L409.805 250.699C409.709 250.892 409.468 250.988 409.227 250.988ZM416.017 241.598C415.873 241.598 415.728 241.55 415.584 241.454C415.247 241.213 415.199 240.779 415.439 240.442L418.81 235.771C419.051 235.434 419.484 235.386 419.821 235.627C420.159 235.868 420.207 236.301 419.966 236.638L416.595 241.309C416.499 241.502 416.258 241.598 416.017 241.598ZM422.807 232.256C422.663 232.256 422.518 232.208 422.374 232.112C422.037 231.871 421.988 231.437 422.229 231.1L425.6 226.429C425.841 226.092 426.274 226.044 426.611 226.285C426.948 226.526 426.997 226.959 426.756 227.296L423.385 231.967C423.24 232.16 423.048 232.256 422.807 232.256ZM429.597 222.914C429.452 222.914 429.308 222.866 429.164 222.769C428.826 222.529 428.778 222.095 429.019 221.758L432.39 217.087C432.631 216.75 433.064 216.702 433.401 216.943C433.738 217.183 433.786 217.617 433.546 217.954L430.175 222.625C430.03 222.818 429.838 222.914 429.597 222.914ZM436.387 213.572C436.242 213.572 436.098 213.524 435.953 213.427C435.616 213.187 435.568 212.753 435.809 212.416L439.18 207.745C439.421 207.408 439.854 207.36 440.191 207.601C440.528 207.841 440.576 208.275 440.336 208.612L436.965 213.283C436.82 213.476 436.628 213.572 436.387 213.572ZM443.177 204.182C443.032 204.182 442.888 204.133 442.743 204.037C442.406 203.796 442.358 203.363 442.599 203.026L445.97 198.355C446.21 198.018 446.644 197.97 446.981 198.21C447.318 198.451 447.366 198.885 447.125 199.222L443.755 203.893C443.61 204.085 443.417 204.182 443.177 204.182ZM449.967 194.84C449.822 194.84 449.678 194.791 449.533 194.695C449.196 194.454 449.148 194.021 449.389 193.684L452.76 189.013C453 188.676 453.434 188.628 453.771 188.868C454.108 189.109 454.156 189.543 453.915 189.88L450.544 194.551C450.4 194.743 450.207 194.84 449.967 194.84ZM456.756 185.497C456.612 185.497 456.467 185.449 456.323 185.353C455.986 185.112 455.938 184.679 456.179 184.342L459.549 179.671C459.79 179.334 460.224 179.285 460.561 179.526C460.898 179.767 460.946 180.2 460.705 180.538L457.334 185.209C457.19 185.401 456.997 185.497 456.756 185.497ZM463.546 176.155C463.402 176.155 463.257 176.107 463.113 176.011C462.776 175.77 462.728 175.337 462.968 175L466.339 170.329C466.58 169.992 467.013 169.943 467.35 170.184C467.688 170.425 467.736 170.858 467.495 171.195L464.124 175.866C463.98 176.059 463.787 176.155 463.546 176.155Z" fill="white"/>
<path d="M386.396 218.471C386.348 218.466 386.348 218.466 386.3 218.461C385.922 218.372 385.676 217.959 385.764 217.581L387.086 211.958C387.175 211.58 387.588 211.334 387.966 211.422C388.344 211.511 388.591 211.924 388.503 212.302L387.18 217.925C387.097 218.255 386.779 218.512 386.396 218.471ZM389.088 207.231C389.04 207.226 389.04 207.226 388.993 207.221C388.615 207.133 388.368 206.719 388.456 206.341L389.778 200.719C389.867 200.341 390.28 200.094 390.659 200.182C391.037 200.271 391.283 200.684 391.195 201.062L389.873 206.685C389.789 207.015 389.424 207.267 389.088 207.231ZM391.733 195.986C391.685 195.981 391.685 195.981 391.637 195.976C391.259 195.888 391.012 195.474 391.101 195.096L392.423 189.474C392.511 189.096 392.925 188.849 393.303 188.938C393.681 189.026 393.928 189.44 393.839 189.818L392.517 195.44C392.433 195.77 392.068 196.022 391.733 195.986ZM394.382 184.694C394.334 184.689 394.334 184.689 394.286 184.684C393.908 184.595 393.661 184.182 393.75 183.803L395.072 178.181C395.161 177.803 395.574 177.556 395.952 177.645C396.33 177.733 396.577 178.147 396.488 178.525L395.166 184.147C395.078 184.525 394.765 184.734 394.382 184.694ZM397.074 173.454C397.026 173.449 397.026 173.449 396.978 173.444C396.6 173.355 396.354 172.942 396.442 172.564L397.764 166.941C397.853 166.563 398.266 166.317 398.644 166.405C399.022 166.493 399.269 166.907 399.181 167.285L397.858 172.907C397.77 173.285 397.409 173.489 397.074 173.454ZM399.718 162.209C399.671 162.204 399.67 162.204 399.623 162.199C399.245 162.11 398.998 161.697 399.086 161.319L400.408 155.696C400.497 155.318 400.911 155.072 401.289 155.16C401.667 155.249 401.913 155.662 401.825 156.04L400.503 161.663C400.414 162.041 400.054 162.245 399.718 162.209Z" fill="white"/>
<path d="M341.157 229.672C340.82 229.672 340.531 229.431 340.435 229.094L339.376 223.412C339.279 223.027 339.568 222.642 339.954 222.545C340.339 222.449 340.724 222.738 340.82 223.123L341.88 228.805C341.976 229.191 341.687 229.576 341.302 229.672C341.254 229.672 341.206 229.672 341.157 229.672ZM339.039 218.308C338.702 218.308 338.413 218.067 338.316 217.73L337.257 212.047C337.161 211.662 337.45 211.277 337.835 211.181C338.22 211.084 338.605 211.373 338.702 211.759L339.761 217.441C339.857 217.826 339.568 218.211 339.183 218.308C339.135 218.308 339.087 218.308 339.039 218.308ZM336.872 206.943C336.535 206.943 336.246 206.702 336.149 206.365L335.09 200.683C334.994 200.298 335.283 199.912 335.668 199.816C336.053 199.72 336.438 200.009 336.535 200.394L337.594 206.076C337.69 206.461 337.401 206.847 337.016 206.943C336.968 206.943 336.92 206.943 336.872 206.943ZM334.753 195.578C334.416 195.578 334.127 195.338 334.031 195.001L332.971 189.318C332.875 188.933 333.164 188.548 333.549 188.451C333.934 188.355 334.319 188.644 334.416 189.029L335.475 194.712C335.572 195.097 335.283 195.482 334.897 195.578C334.849 195.578 334.801 195.578 334.753 195.578ZM332.634 184.214C332.297 184.214 332.008 183.973 331.912 183.636L330.852 177.954C330.756 177.568 331.045 177.183 331.43 177.087C331.815 176.991 332.201 177.28 332.297 177.665L333.356 183.347C333.453 183.732 333.164 184.118 332.779 184.214C332.682 184.214 332.634 184.214 332.634 184.214ZM330.467 172.897C330.13 172.897 329.841 172.657 329.745 172.32L328.685 166.637C328.589 166.252 328.878 165.867 329.263 165.77C329.648 165.674 330.034 165.963 330.13 166.348L331.189 172.031C331.286 172.416 330.997 172.801 330.612 172.897C330.563 172.849 330.515 172.897 330.467 172.897ZM328.348 161.533C328.011 161.533 327.722 161.292 327.626 160.955L326.567 155.273C326.47 154.887 326.759 154.502 327.144 154.406C327.53 154.31 327.915 154.598 328.011 154.984L329.071 160.666C329.167 161.051 328.878 161.437 328.493 161.533C328.396 161.533 328.396 161.533 328.348 161.533Z" fill="white"/>
<path d="M295.701 239.063C295.461 239.063 295.172 238.918 295.075 238.677L292.379 233.573C292.186 233.236 292.331 232.802 292.668 232.61C293.005 232.417 293.438 232.562 293.631 232.899L296.327 238.003C296.52 238.34 296.376 238.774 296.038 238.966C295.894 239.014 295.798 239.063 295.701 239.063ZM290.308 228.806C290.067 228.806 289.778 228.661 289.682 228.42L286.985 223.316C286.793 222.979 286.937 222.545 287.274 222.353C287.611 222.16 288.045 222.305 288.237 222.642L290.934 227.746C291.127 228.083 290.982 228.517 290.645 228.709C290.501 228.806 290.404 228.806 290.308 228.806ZM284.915 218.597C284.674 218.597 284.385 218.452 284.289 218.211L281.592 213.107C281.399 212.77 281.544 212.336 281.881 212.144C282.218 211.951 282.651 212.096 282.844 212.433L285.541 217.537C285.733 217.874 285.589 218.308 285.252 218.5C285.155 218.548 285.011 218.597 284.915 218.597ZM279.521 208.388C279.28 208.388 278.992 208.243 278.895 208.003L276.199 202.898C276.006 202.561 276.15 202.128 276.487 201.935C276.825 201.742 277.258 201.887 277.451 202.224L280.147 207.328C280.34 207.665 280.195 208.099 279.858 208.291C279.762 208.34 279.666 208.388 279.521 208.388ZM274.128 198.131C273.887 198.131 273.598 197.986 273.502 197.745L270.805 192.641C270.613 192.304 270.757 191.871 271.094 191.678C271.431 191.485 271.865 191.63 272.057 191.967L274.754 197.071C274.947 197.408 274.802 197.842 274.465 198.034C274.369 198.131 274.272 198.131 274.128 198.131ZM268.783 187.922C268.542 187.922 268.253 187.777 268.157 187.537L265.46 182.432C265.267 182.095 265.412 181.662 265.749 181.469C266.086 181.276 266.519 181.421 266.712 181.758L269.409 186.862C269.601 187.2 269.457 187.633 269.12 187.826C268.975 187.874 268.879 187.922 268.783 187.922ZM263.389 177.665C263.149 177.665 262.86 177.52 262.763 177.28L260.067 172.175C259.874 171.838 260.018 171.405 260.356 171.212C260.693 171.019 261.126 171.164 261.319 171.501L264.015 176.605C264.208 176.943 264.063 177.376 263.726 177.569C263.63 177.665 263.486 177.665 263.389 177.665ZM257.996 167.456C257.755 167.456 257.466 167.312 257.37 167.071L254.673 161.966C254.481 161.629 254.625 161.196 254.962 161.003C255.299 160.811 255.733 160.955 255.925 161.292L258.622 166.397C258.815 166.734 258.67 167.167 258.333 167.36C258.237 167.408 258.092 167.456 257.996 167.456ZM252.603 157.247C252.362 157.247 252.073 157.103 251.977 156.862L249.28 151.757C249.087 151.42 249.232 150.987 249.569 150.794C249.906 150.602 250.339 150.746 250.532 151.083L253.229 156.188C253.421 156.525 253.277 156.958 252.94 157.151C252.843 157.199 252.747 157.247 252.603 157.247ZM247.257 146.99C247.017 146.99 246.728 146.846 246.631 146.605L244.513 142.608C244.32 142.271 244.464 141.837 244.801 141.645C245.139 141.452 245.572 141.597 245.765 141.934L247.883 145.931C248.076 146.268 247.932 146.701 247.594 146.894C247.45 146.99 247.354 146.99 247.257 146.99Z" fill="white"/>
<path d="M271.141 265.066C270.997 265.066 270.804 265.018 270.708 264.922L266.181 261.358C265.844 261.117 265.796 260.636 266.037 260.347C266.278 260.01 266.759 259.962 267.048 260.202L271.575 263.766C271.912 264.007 271.96 264.488 271.719 264.777C271.527 264.97 271.334 265.066 271.141 265.066ZM262.04 257.891C261.896 257.891 261.703 257.843 261.607 257.747L257.08 254.183C256.743 253.942 256.695 253.461 256.936 253.172C257.176 252.835 257.658 252.787 257.947 253.027L262.474 256.591C262.811 256.832 262.859 257.313 262.618 257.602C262.474 257.795 262.233 257.891 262.04 257.891ZM252.939 250.764C252.794 250.764 252.602 250.716 252.505 250.62L247.979 247.056C247.642 246.815 247.594 246.334 247.834 246.045C248.075 245.708 248.557 245.66 248.846 245.9L253.372 249.464C253.709 249.705 253.757 250.186 253.517 250.475C253.372 250.668 253.18 250.764 252.939 250.764ZM243.886 243.589C243.741 243.589 243.549 243.541 243.452 243.444L238.926 239.881C238.589 239.64 238.54 239.159 238.781 238.87C239.022 238.533 239.504 238.485 239.792 238.725L244.319 242.289C244.656 242.53 244.704 243.011 244.464 243.3C244.319 243.493 244.078 243.589 243.886 243.589ZM234.784 236.462C234.64 236.462 234.447 236.414 234.351 236.318L229.824 232.754C229.487 232.513 229.439 232.032 229.68 231.743C229.921 231.406 230.402 231.358 230.691 231.598L235.218 235.162C235.555 235.403 235.603 235.884 235.362 236.173C235.218 236.366 235.025 236.462 234.784 236.462ZM225.731 229.287C225.587 229.287 225.394 229.239 225.298 229.142L220.771 225.579C220.434 225.338 220.386 224.857 220.627 224.568C220.868 224.231 221.349 224.182 221.638 224.423L226.165 227.987C226.502 228.227 226.55 228.709 226.309 228.998C226.116 229.191 225.924 229.287 225.731 229.287ZM216.63 222.16C216.485 222.16 216.293 222.112 216.197 222.015L211.67 218.452C211.333 218.211 211.285 217.73 211.525 217.441C211.766 217.104 212.248 217.056 212.537 217.296L217.063 220.86C217.4 221.101 217.449 221.582 217.208 221.871C217.063 222.064 216.823 222.16 216.63 222.16ZM207.529 215.033C207.384 215.033 207.192 214.985 207.095 214.889L202.761 211.47C202.424 211.229 202.376 210.747 202.617 210.458C202.858 210.121 203.339 210.073 203.628 210.314L207.962 213.733C208.299 213.974 208.347 214.455 208.106 214.744C207.962 214.937 207.769 215.033 207.529 215.033Z" fill="white"/>
<path d="M191.346 225.53C205.149 225.53 216.338 214.276 216.338 200.393C216.338 186.51 205.149 175.256 191.346 175.256C177.543 175.256 166.354 186.51 166.354 200.393C166.354 214.276 177.543 225.53 191.346 225.53Z" fill="#5479F7"/>
<path d="M207.765 199.526L190.767 216.91C189.852 217.825 188.407 217.825 187.492 216.958L175.55 205.16C174.635 204.245 174.635 202.752 175.502 201.837L192.5 184.453C193.415 183.538 194.86 183.538 195.775 184.405L207.717 196.203C208.68 197.166 208.68 198.611 207.765 199.526Z" fill="white"/>
<path d="M181.569 204.39C181.232 204.39 180.943 204.149 180.847 203.812C180.75 203.427 180.991 203.042 181.376 202.946L192.211 200.586C192.596 200.49 192.982 200.73 193.078 201.116C193.174 201.501 192.934 201.886 192.548 201.982L181.713 204.342C181.713 204.39 181.617 204.39 181.569 204.39Z" fill="#5479F7"/>
<path d="M192.451 201.983C192.403 201.983 192.355 201.983 192.307 201.983C191.922 201.886 191.681 201.549 191.729 201.116L193.896 190.185C193.992 189.799 194.329 189.559 194.763 189.607C195.148 189.703 195.389 190.04 195.341 190.473L193.174 201.405C193.126 201.742 192.788 201.983 192.451 201.983Z" fill="#5479F7"/>
<path d="M402.261 159.821C415.988 161.276 428.301 151.263 429.763 137.458C431.226 123.652 421.285 111.282 407.559 109.827C393.833 108.373 381.52 118.385 380.057 132.191C378.594 145.996 388.535 158.367 402.261 159.821Z" fill="#5479F7"/>
<path d="M508.978 451.377C508.737 451.377 508.544 451.28 508.4 451.088C508.159 450.751 508.207 450.317 508.544 450.077C531.466 432.741 541.53 410.975 539.363 383.526C539.315 383.141 539.652 382.804 540.038 382.756C540.423 382.708 540.76 383.045 540.808 383.43C543.023 411.408 532.766 433.608 509.411 451.28C509.267 451.329 509.122 451.377 508.978 451.377Z" fill="white"/>
<path d="M519.09 432.453C518.946 432.453 518.801 432.405 518.657 432.308C518.32 432.067 518.272 431.634 518.512 431.297C531.611 414.202 535.945 395.133 531.707 372.933C531.611 372.548 531.9 372.163 532.285 372.066C532.67 371.97 533.055 372.259 533.152 372.644C537.486 395.229 533.055 414.683 519.716 432.116C519.524 432.356 519.331 432.453 519.09 432.453Z" fill="white"/>
<path d="M355.847 430.238C355.51 428.456 348.768 429.034 348.335 427.253C347.95 425.615 353.776 419.837 353.295 418.199C350.405 408.472 345.975 400.912 339.811 391.762C339.378 391.088 338.367 391.04 337.885 391.666C334.514 395.856 323.824 410.446 317.467 433.946C317.082 435.391 323.15 442.181 322.813 443.673C322.476 445.166 315.493 443.288 315.204 444.829C312.122 459.95 311.255 476.082 315.012 494.814C326.617 498.667 338.752 500.93 350.694 501.267C356.714 480.945 361 456.483 355.847 430.238Z" fill="#99B9FF"/>
<path d="M330.324 403.609C330.18 403.609 330.084 403.561 329.939 403.513C329.602 403.32 329.458 402.887 329.698 402.502C331.239 399.901 332.828 397.397 334.418 395.086C334.658 394.749 335.092 394.701 335.429 394.893C335.766 395.134 335.814 395.567 335.621 395.904C334.032 398.168 332.491 400.624 330.95 403.224C330.806 403.513 330.565 403.609 330.324 403.609Z" fill="#CADDFF"/>
<path d="M345.59 401.635C345.349 401.635 345.109 401.49 344.964 401.298C343.808 399.371 342.508 397.253 340.967 394.941C340.726 394.604 340.823 394.171 341.16 393.93C341.497 393.689 341.93 393.785 342.171 394.122C343.712 396.482 345.06 398.601 346.216 400.575C346.409 400.912 346.312 401.346 345.975 401.587C345.831 401.635 345.735 401.635 345.59 401.635Z" fill="#CADDFF"/>
<path d="M331.913 494.091C331.865 494.091 331.817 494.091 331.817 494.091C331.432 494.043 331.143 493.658 331.239 493.273C332.684 484.46 333.887 475.455 334.851 466.595C334.899 466.21 335.236 465.921 335.669 465.969C336.054 466.017 336.343 466.354 336.295 466.788C335.332 475.696 334.128 484.701 332.684 493.562C332.587 493.851 332.25 494.091 331.913 494.091Z" fill="#CADDFF"/>
<path d="M336.728 454.652H336.68C336.295 454.604 336.006 454.267 336.006 453.882C337.258 438.857 337.835 423.64 337.739 408.568L337.691 401.682C337.691 401.296 338.028 400.959 338.413 400.959C338.799 400.959 339.136 401.296 339.136 401.682L339.184 408.568C339.28 423.688 338.702 438.954 337.45 454.026C337.402 454.363 337.113 454.652 336.728 454.652Z" fill="#CADDFF"/>
<path d="M261.896 460.287C276.15 477.093 288.622 492.551 319.585 496.307C314.577 484.268 299.168 457.638 261.896 460.287Z" fill="#99B9FF"/>
<path d="M422.588 494.622C444.306 473.674 453.648 449.26 453.648 449.26C445.462 449.886 438.143 451.186 430.775 453.016C429.812 453.256 427.645 460.239 426.73 460.48C425.67 460.769 423.166 455.086 422.155 455.423C385.702 466.403 361.672 489.421 352.186 499.822C375.204 504.927 400.004 503.049 422.588 494.622Z" fill="#99B9FF"/>
<path d="M399.716 487.782C399.475 487.782 399.234 487.686 399.138 487.445C398.897 487.108 398.993 486.675 399.331 486.434L446.86 454.748C447.197 454.507 447.63 454.604 447.871 454.941C448.112 455.278 448.015 455.711 447.678 455.952L400.149 487.638C399.957 487.734 399.86 487.782 399.716 487.782Z" fill="#CADDFF"/>
<path d="M239.894 154.508C253.697 154.508 264.886 143.254 264.886 129.372C264.886 115.489 253.697 104.235 239.894 104.235C226.091 104.235 214.901 115.489 214.901 129.372C214.901 143.254 226.091 154.508 239.894 154.508Z" fill="#5479F7"/>
<g clip-path="url(#clip0)">
<path d="M240.72 115.346H240.713C233.286 115.346 227.246 121.387 227.246 128.816C227.246 131.763 228.196 134.494 229.811 136.712L228.132 141.716L233.31 140.061C235.44 141.472 237.981 142.287 240.72 142.287C248.148 142.287 254.187 136.244 254.187 128.816C254.187 121.389 248.148 115.346 240.72 115.346Z" fill="white"/>
<path d="M248.558 134.368C248.233 135.285 246.943 136.047 245.915 136.269C245.211 136.419 244.291 136.538 241.197 135.255C237.238 133.615 234.689 129.593 234.49 129.332C234.3 129.071 232.89 127.201 232.89 125.268C232.89 123.335 233.872 122.394 234.268 121.99C234.593 121.658 235.13 121.507 235.645 121.507C235.812 121.507 235.962 121.515 236.096 121.522C236.492 121.539 236.691 121.562 236.952 122.187C237.277 122.97 238.068 124.903 238.162 125.102C238.258 125.3 238.354 125.57 238.22 125.831C238.093 126.1 237.982 126.22 237.784 126.449C237.585 126.678 237.396 126.853 237.198 127.099C237.016 127.313 236.81 127.542 237.039 127.937C237.268 128.325 238.06 129.616 239.225 130.653C240.729 131.992 241.948 132.42 242.384 132.601C242.709 132.736 243.096 132.704 243.333 132.452C243.635 132.127 244.007 131.588 244.386 131.057C244.655 130.677 244.995 130.63 245.352 130.764C245.716 130.891 247.641 131.842 248.036 132.039C248.432 132.238 248.693 132.332 248.789 132.499C248.883 132.665 248.883 133.448 248.558 134.368Z" fill="#5479F7"/>
</g>
<path d="M478.165 184.138C491.968 184.138 503.158 172.884 503.158 159.001C503.158 145.118 491.968 133.864 478.165 133.864C464.362 133.864 453.173 145.118 453.173 159.001C453.173 172.884 464.362 184.138 478.165 184.138Z" fill="#5479F7"/>
<g clip-path="url(#clip1)">
<path d="M466.753 157.834C466.753 161.103 468.384 164.02 470.934 165.924V169.886L474.754 167.79C475.774 168.071 476.854 168.225 477.973 168.225C484.17 168.225 489.194 163.574 489.194 157.835C489.195 152.097 484.17 147.445 477.974 147.445C471.777 147.445 466.753 152.096 466.753 157.834V157.834ZM476.79 154.924L479.717 157.972L485.222 154.924L479.087 161.434L476.231 158.388L470.655 161.435L476.79 154.924Z" fill="white"/>
</g>
<g clip-path="url(#clip2)">
<path d="M419.444 135.42C418.624 143.153 411.698 148.752 403.965 147.933C396.232 147.113 390.633 140.187 391.452 132.454C392.272 124.721 399.198 119.122 406.931 119.941C414.664 120.761 420.263 127.687 419.444 135.42Z" fill="white"/>
<path d="M402.447 138.965C401.992 138.917 402.092 138.75 401.974 138.301L401.11 133.775L409.913 129.495L410.854 129.854L409.817 131.962L402.447 138.965Z" fill="#CAD6FF"/>
<path d="M402.447 138.965C402.797 139.002 402.966 138.855 403.184 138.69C403.518 138.43 407.815 135.052 407.815 135.052L405.486 134.216L403.122 135.381L402.459 138.849L402.447 138.965Z" fill="#A2B7FF"/>
<path d="M403.058 135.421L408.262 140.183C408.867 140.601 409.352 140.475 409.597 139.723L413.041 129.143C413.374 128.223 412.824 127.74 412.176 127.955L398.143 131.728C397.182 132.003 397.139 132.518 397.862 132.818L401.211 134.27L409.759 130.069C410.156 129.875 410.493 130.041 410.186 130.268L403.058 135.421Z" fill="#5479F7"/>
</g>
<path d="M325.079 161.916C338.882 161.916 350.072 150.662 350.072 136.779C350.072 122.896 338.882 111.642 325.079 111.642C311.276 111.642 300.087 122.896 300.087 136.779C300.087 150.662 311.276 161.916 325.079 161.916Z" fill="#5479F7"/>
<path d="M339.346 136.827C339.346 144.603 333.048 150.901 325.272 150.901C317.496 150.901 311.198 144.603 311.198 136.827C311.198 129.051 317.496 122.753 325.272 122.753C333.048 122.753 339.346 129.051 339.346 136.827Z" fill="white"/>
<g clip-path="url(#clip3)">
<path d="M323.05 136.827C323.05 135.6 324.044 134.604 325.271 134.604C326.499 134.604 327.494 135.6 327.494 136.827C327.494 138.054 326.499 139.049 325.271 139.049C324.044 139.049 323.05 138.054 323.05 136.827ZM321.848 136.827C321.848 138.717 323.381 140.25 325.271 140.25C327.162 140.25 328.695 138.717 328.695 136.827C328.695 134.936 327.162 133.404 325.271 133.404C323.381 133.404 321.848 134.936 321.848 136.827ZM328.03 133.268C328.03 133.426 328.077 133.581 328.165 133.712C328.253 133.844 328.378 133.947 328.524 134.007C328.67 134.068 328.831 134.084 328.986 134.053C329.141 134.022 329.284 133.946 329.396 133.834C329.508 133.722 329.584 133.58 329.615 133.425C329.646 133.269 329.63 133.109 329.569 132.962C329.509 132.816 329.406 132.691 329.275 132.603C329.143 132.515 328.989 132.468 328.83 132.468H328.83C328.618 132.468 328.415 132.553 328.265 132.702C328.115 132.852 328.03 133.056 328.03 133.268ZM322.578 142.253C321.928 142.224 321.575 142.115 321.34 142.024C321.029 141.903 320.807 141.759 320.573 141.525C320.34 141.292 320.195 141.07 320.075 140.759C319.983 140.524 319.875 140.171 319.845 139.521C319.813 138.818 319.806 138.607 319.806 136.827C319.806 135.047 319.813 134.836 319.845 134.133C319.875 133.483 319.984 133.13 320.075 132.895C320.196 132.583 320.34 132.361 320.573 132.128C320.806 131.894 321.028 131.75 321.34 131.629C321.575 131.538 321.928 131.429 322.578 131.4C323.281 131.368 323.492 131.361 325.271 131.361C327.051 131.361 327.262 131.368 327.966 131.4C328.616 131.429 328.968 131.539 329.204 131.629C329.515 131.75 329.737 131.895 329.97 132.128C330.204 132.361 330.348 132.583 330.469 132.895C330.561 133.129 330.669 133.483 330.698 134.133C330.731 134.836 330.737 135.047 330.737 136.827C330.737 138.607 330.731 138.818 330.698 139.521C330.669 140.171 330.56 140.524 330.469 140.759C330.348 141.07 330.204 141.292 329.97 141.525C329.737 141.758 329.515 141.903 329.204 142.024C328.969 142.116 328.616 142.224 327.966 142.253C327.263 142.286 327.052 142.292 325.271 142.292C323.491 142.292 323.281 142.286 322.578 142.253ZM322.523 130.201C321.813 130.233 321.328 130.345 320.905 130.51C320.466 130.68 320.095 130.909 319.724 131.279C319.353 131.65 319.125 132.021 318.955 132.46C318.79 132.884 318.677 133.369 318.645 134.078C318.612 134.789 318.605 135.016 318.605 136.827C318.605 138.637 318.612 138.865 318.645 139.575C318.677 140.285 318.79 140.77 318.955 141.194C319.125 141.632 319.353 142.004 319.724 142.375C320.095 142.745 320.466 142.973 320.905 143.143C321.329 143.308 321.813 143.421 322.523 143.453C323.234 143.485 323.461 143.493 325.271 143.493C327.082 143.493 327.309 143.486 328.02 143.453C328.73 143.421 329.214 143.308 329.638 143.143C330.076 142.973 330.448 142.745 330.819 142.375C331.19 142.004 331.417 141.632 331.588 141.194C331.753 140.77 331.866 140.285 331.898 139.575C331.93 138.864 331.938 138.637 331.938 136.827C331.938 135.016 331.93 134.789 331.898 134.078C331.865 133.369 331.753 132.884 331.588 132.46C331.417 132.022 331.19 131.65 330.819 131.279C330.449 130.908 330.076 130.68 329.639 130.51C329.214 130.345 328.73 130.232 328.02 130.201C327.31 130.168 327.082 130.16 325.272 130.16C323.461 130.16 323.234 130.168 322.523 130.201Z" fill="url(#paint0_radial)"/>
<path d="M323.05 136.827C323.05 135.6 324.044 134.604 325.271 134.604C326.499 134.604 327.494 135.6 327.494 136.827C327.494 138.054 326.499 139.049 325.271 139.049C324.044 139.049 323.05 138.054 323.05 136.827ZM321.848 136.827C321.848 138.717 323.381 140.25 325.271 140.25C327.162 140.25 328.695 138.717 328.695 136.827C328.695 134.936 327.162 133.404 325.271 133.404C323.381 133.404 321.848 134.936 321.848 136.827ZM328.03 133.268C328.03 133.426 328.077 133.581 328.165 133.712C328.253 133.844 328.378 133.947 328.524 134.007C328.67 134.068 328.831 134.084 328.986 134.053C329.141 134.022 329.284 133.946 329.396 133.834C329.508 133.722 329.584 133.58 329.615 133.425C329.646 133.269 329.63 133.109 329.569 132.962C329.509 132.816 329.406 132.691 329.275 132.603C329.143 132.515 328.989 132.468 328.83 132.468H328.83C328.618 132.468 328.415 132.553 328.265 132.702C328.115 132.852 328.03 133.056 328.03 133.268ZM322.578 142.253C321.928 142.224 321.575 142.115 321.34 142.024C321.029 141.903 320.807 141.759 320.573 141.525C320.34 141.292 320.195 141.07 320.075 140.759C319.983 140.524 319.875 140.171 319.845 139.521C319.813 138.818 319.806 138.607 319.806 136.827C319.806 135.047 319.813 134.836 319.845 134.133C319.875 133.483 319.984 133.13 320.075 132.895C320.196 132.583 320.34 132.361 320.573 132.128C320.806 131.894 321.028 131.75 321.34 131.629C321.575 131.538 321.928 131.429 322.578 131.4C323.281 131.368 323.492 131.361 325.271 131.361C327.051 131.361 327.262 131.368 327.966 131.4C328.616 131.429 328.968 131.539 329.204 131.629C329.515 131.75 329.737 131.895 329.97 132.128C330.204 132.361 330.348 132.583 330.469 132.895C330.561 133.129 330.669 133.483 330.698 134.133C330.731 134.836 330.737 135.047 330.737 136.827C330.737 138.607 330.731 138.818 330.698 139.521C330.669 140.171 330.56 140.524 330.469 140.759C330.348 141.07 330.204 141.292 329.97 141.525C329.737 141.758 329.515 141.903 329.204 142.024C328.969 142.116 328.616 142.224 327.966 142.253C327.263 142.286 327.052 142.292 325.271 142.292C323.491 142.292 323.281 142.286 322.578 142.253ZM322.523 130.201C321.813 130.233 321.328 130.345 320.905 130.51C320.466 130.68 320.095 130.909 319.724 131.279C319.353 131.65 319.125 132.021 318.955 132.46C318.79 132.884 318.677 133.369 318.645 134.078C318.612 134.789 318.605 135.016 318.605 136.827C318.605 138.637 318.612 138.865 318.645 139.575C318.677 140.285 318.79 140.77 318.955 141.194C319.125 141.632 319.353 142.004 319.724 142.375C320.095 142.745 320.466 142.973 320.905 143.143C321.329 143.308 321.813 143.421 322.523 143.453C323.234 143.485 323.461 143.493 325.271 143.493C327.082 143.493 327.309 143.486 328.02 143.453C328.73 143.421 329.214 143.308 329.638 143.143C330.076 142.973 330.448 142.745 330.819 142.375C331.19 142.004 331.417 141.632 331.588 141.194C331.753 140.77 331.866 140.285 331.898 139.575C331.93 138.864 331.938 138.637 331.938 136.827C331.938 135.016 331.93 134.789 331.898 134.078C331.865 133.369 331.753 132.884 331.588 132.46C331.417 132.022 331.19 131.65 330.819 131.279C330.449 130.908 330.076 130.68 329.639 130.51C329.214 130.345 328.73 130.232 328.02 130.201C327.31 130.168 327.082 130.16 325.272 130.16C323.461 130.16 323.234 130.168 322.523 130.201Z" fill="#5479F7"/>
</g>
<path d="M465.206 282.113C464.291 281.728 460.969 280.716 458.898 277.634C457.453 275.419 452.83 271.134 454.468 268.87C454.853 268.292 459.572 265.259 465.929 265.499C473.97 265.837 477.967 269.159 477.967 269.159C484.565 272.626 482.398 278.309 489.236 281.391C491.691 282.45 500.841 282.065 506.764 288.566C516.395 299.16 520.247 305.709 501.274 317.555C488.465 325.549 484.902 317.651 475.8 307.635C461.017 291.262 476.282 286.639 465.206 282.113Z" fill="black"/>
<path d="M470.022 470.254L470.407 486.097L475.993 486.675L478.786 469.676L470.022 470.254Z" fill="white"/>
<path d="M475.994 487.397C475.946 487.397 475.946 487.397 475.898 487.397L470.312 486.771C469.975 486.723 469.686 486.434 469.686 486.048L469.253 470.254C469.253 469.868 469.542 469.531 469.927 469.531L478.691 468.953C478.932 468.953 479.124 469.002 479.269 469.194C479.413 469.339 479.462 469.579 479.462 469.82L476.717 486.819C476.669 487.156 476.38 487.397 475.994 487.397ZM471.131 485.422L475.417 485.904L477.921 470.446L470.746 470.928L471.131 485.422Z" fill="black"/>
<path d="M438.29 475.453L437.423 488.07L444.791 488.648L447.439 475.453H438.29Z" fill="white"/>
<path d="M444.787 489.372H444.739L437.371 488.746C436.986 488.698 436.697 488.361 436.697 487.975L437.612 475.359C437.66 474.973 437.949 474.685 438.334 474.685H447.484C447.676 474.685 447.917 474.781 448.061 474.925C448.206 475.07 448.254 475.311 448.206 475.503L445.557 488.698C445.413 489.131 445.124 489.372 444.787 489.372ZM438.19 487.397L444.209 487.879L446.569 476.177H439.008L438.19 487.397Z" fill="black"/>
<path d="M446.765 494.091C447.294 493.754 447.583 493.177 447.583 492.55C447.631 490.721 447.631 486.772 446.909 485.279C445.898 483.305 441.853 486.05 441.853 486.05C441.853 486.05 439.445 482.727 438.049 482.053C437.326 481.716 433.089 484.509 428.803 488.361C424.132 492.55 422.013 493.899 421.002 497.559C420.52 499.244 421.772 500.978 423.554 501.122C427.84 501.411 436.556 500.881 446.765 494.091Z" fill="#5479F7"/>
<path d="M425.431 501.892C424.709 501.892 424.083 501.844 423.505 501.844C422.445 501.747 421.482 501.218 420.856 500.351C420.23 499.484 420.038 498.425 420.327 497.413C421.242 494.139 423.023 492.55 426.298 489.661C426.924 489.131 427.598 488.505 428.32 487.879C428.657 487.59 436.507 480.559 438.337 481.474C439.541 482.052 441.226 484.123 441.996 485.182C442.96 484.604 444.886 483.641 446.282 484.026C446.86 484.171 447.293 484.508 447.534 485.038C448.305 486.53 448.353 489.998 448.305 492.646C448.305 493.513 447.871 494.283 447.149 494.765C438.096 500.736 430.247 501.892 425.431 501.892ZM437.807 482.774C437.036 482.919 433.569 485.038 429.283 488.938C428.561 489.612 427.887 490.19 427.261 490.768C423.986 493.657 422.494 494.958 421.723 497.799C421.579 498.377 421.675 499.003 422.012 499.532C422.397 500.062 422.975 500.399 423.601 500.447C427.791 500.736 436.314 500.255 446.33 493.561C446.667 493.368 446.86 492.983 446.86 492.598C446.956 489.179 446.716 486.627 446.234 485.664C446.138 485.519 446.041 485.423 445.897 485.375C444.982 485.134 443.008 486.145 442.237 486.723C441.9 486.964 441.467 486.868 441.226 486.53C440.407 485.327 438.77 483.304 437.807 482.774Z" fill="black"/>
<path d="M427.598 498.521C424.95 498.521 423.216 498.136 423.023 498.087C422.638 497.991 422.397 497.606 422.494 497.221C422.59 496.835 422.975 496.595 423.361 496.691C423.457 496.739 434.821 499.195 445.608 490.575C445.897 490.335 446.379 490.383 446.619 490.672C446.86 490.961 446.812 491.442 446.523 491.683C439.348 497.413 432.125 498.521 427.598 498.521Z" fill="black"/>
<path d="M467.808 489.949L467.904 481.281C467.904 481.281 469.638 478.632 472.046 480.799C472.046 480.799 474.261 477.717 478.354 481.57C478.354 481.57 484.085 492.308 486.637 498.665C487.311 500.35 486.107 502.228 484.277 502.276C481.629 502.325 478.21 502.18 476.717 501.169C474.405 499.58 470.409 494.668 468.675 492.405C468.097 491.73 467.808 490.815 467.808 489.949Z" fill="#5479F7"/>
<path d="M483.17 503C479.799 503 477.488 502.566 476.284 501.796C473.924 500.207 470.12 495.536 468.098 492.887C467.472 492.068 467.086 491.009 467.086 489.95L467.183 481.282C467.183 481.137 467.231 480.993 467.279 480.896C467.327 480.848 468.242 479.452 469.783 479.259C470.505 479.163 471.228 479.356 471.95 479.837C472.383 479.452 473.106 479.018 474.069 478.922C475.562 478.778 477.151 479.5 478.788 481.041C478.836 481.089 478.884 481.137 478.933 481.234C478.981 481.33 484.711 492.068 487.263 498.377C487.697 499.388 487.552 500.544 486.926 501.507C486.3 502.422 485.289 503 484.23 503C483.844 503 483.507 503 483.17 503ZM467.809 489.95H468.531C468.531 490.672 468.772 491.394 469.205 491.972C470.843 494.043 474.839 499.051 477.055 500.592C478.114 501.314 480.618 501.651 484.181 501.555C484.807 501.555 485.385 501.218 485.722 500.688C486.06 500.159 486.156 499.484 485.915 498.906C483.555 492.983 478.307 483.112 477.729 482.004C476.477 480.848 475.225 480.27 474.213 480.367C473.154 480.463 472.624 481.234 472.624 481.234C472.528 481.378 472.335 481.522 472.095 481.522C471.902 481.522 471.709 481.474 471.517 481.33C470.987 480.848 470.457 480.608 469.976 480.704C469.35 480.8 468.82 481.282 468.627 481.571L468.531 489.998L467.809 489.95Z" fill="black"/>
<path d="M471.996 486.193C471.611 486.193 471.274 485.856 471.274 485.471V480.8C471.274 480.415 471.611 480.078 471.996 480.078C472.381 480.078 472.719 480.415 472.719 480.8V485.471C472.719 485.856 472.381 486.193 471.996 486.193Z" fill="black"/>
<path d="M436.074 476.177C436.074 476.177 433.955 444.395 437.422 415.791C440.889 387.187 453.747 346.351 453.747 346.351C453.747 346.351 467.567 345.725 477.632 347.074C487.696 348.422 491.693 347.026 491.693 347.026C491.693 347.026 499.205 355.645 498.579 371.825C497.953 388.006 480.425 456.241 481.099 472.277C481.099 472.277 475.224 475.262 467.567 473.77L470.746 381.794C470.746 381.794 464.196 400.718 461.115 413.72C458.61 424.314 454.277 431.152 454.277 431.152C454.277 431.152 454.469 455.76 448.835 476.129C448.787 476.081 442.093 478.152 436.074 476.177Z" fill="black"/>
<path d="M447.101 442.372C446.957 442.372 446.812 442.323 446.716 442.227C446.379 441.986 446.283 441.553 446.524 441.216L451.339 434.185C451.58 433.848 452.013 433.752 452.35 433.993C452.687 434.233 452.784 434.667 452.543 435.004L447.727 442.035C447.583 442.227 447.342 442.372 447.101 442.372Z" fill="white"/>
<path d="M479.607 425.277C477.97 425.277 476.766 424.988 476.669 424.94C476.284 424.843 476.043 424.458 476.14 424.073C476.236 423.688 476.621 423.447 477.007 423.543C477.055 423.543 481.485 424.651 484.471 422.388C484.808 422.147 485.241 422.195 485.482 422.532C485.723 422.869 485.674 423.303 485.337 423.543C483.507 424.94 481.34 425.277 479.607 425.277Z" fill="white"/>
<path d="M444.402 348.036C444.402 348.036 442.284 355.307 473.921 357.089C505.559 358.871 500.262 349.866 500.262 349.866L467.035 340.187L444.402 348.036Z" fill="black"/>
<path d="M397.74 291.358L409.634 297.762C409.634 297.762 416.906 316.735 427.355 317.891C437.757 319.047 448.11 304.6 448.11 304.6L455.044 319.384C455.044 319.384 444.884 335.082 428.752 332.578C412.62 330.026 408.238 305.852 408.238 305.852C408.238 305.852 404.433 306.238 402.989 302.53C401.785 299.351 402.266 297.522 402.266 297.522C402.266 297.522 396.488 294.44 397.74 291.358Z" fill="white"/>
<path d="M432.172 333.639C431.016 333.639 429.812 333.542 428.608 333.35C413.439 330.942 408.431 310.524 407.613 306.624C407.468 306.624 407.276 306.576 407.083 306.576C405.783 306.383 403.375 305.661 402.267 302.82C401.352 300.46 401.352 298.726 401.449 297.908C400.004 297.041 395.815 294.2 397.067 291.118C397.163 290.925 397.307 290.781 397.5 290.684C397.693 290.636 397.885 290.636 398.078 290.733L409.972 297.137C410.117 297.234 410.261 297.33 410.309 297.522C410.357 297.715 417.533 316.11 427.404 317.218C437.276 318.325 447.389 304.36 447.485 304.264C447.629 304.072 447.87 303.927 448.159 303.975C448.4 303.975 448.641 304.168 448.737 304.409L455.671 319.192C455.768 319.433 455.768 319.674 455.623 319.866C455.479 319.963 446.474 333.591 432.172 333.639ZM408.19 305.179C408.239 305.179 408.287 305.179 408.287 305.179C408.576 305.227 408.817 305.468 408.865 305.757C408.913 305.998 413.343 329.497 428.753 331.905C442.91 334.12 452.541 321.552 454.082 319.385L447.822 306.046C445.366 309.176 437.18 318.711 428.416 318.711C427.982 318.711 427.549 318.711 427.115 318.663C416.907 317.555 409.876 300.701 408.913 298.341L398.174 292.563C398.415 294.729 402.412 296.945 402.46 296.945C402.749 297.089 402.893 297.426 402.797 297.763C402.797 297.763 402.364 299.497 403.471 302.338C404.675 305.42 407.709 305.227 407.95 305.227C408.094 305.179 408.142 305.179 408.19 305.179Z" fill="black"/>
<path d="M408.528 304.601C408.48 304.601 408.384 304.601 408.336 304.553C408.239 304.505 405.687 303.686 405.35 301.423C405.254 300.604 404.772 299.978 404.387 299.593C403.713 298.919 403.328 298.004 403.328 297.041V296.559C403.328 296.318 403.424 296.078 403.665 295.981C403.857 295.837 404.098 295.837 404.339 295.885L408.336 297.474C408.721 297.619 408.865 298.052 408.721 298.389C408.577 298.774 408.143 298.919 407.806 298.774L404.869 297.619C404.965 297.956 405.158 298.245 405.398 298.485C405.928 299.015 406.65 299.93 406.795 301.134C406.987 302.482 408.769 303.06 408.769 303.06C409.154 303.156 409.347 303.59 409.251 303.975C409.106 304.408 408.817 304.601 408.528 304.601Z" fill="black"/>
<path d="M488.707 320.3C488.707 320.3 496.027 336.769 507.969 340.14C519.911 343.511 528.242 333.35 528.194 322.853L524.149 321.504C524.149 321.504 519.96 332.243 510.666 329.45C501.372 326.657 497.038 304.746 497.038 304.746L488.707 320.3Z" fill="white"/>
<path d="M512.542 341.535C511.098 341.535 509.46 341.343 507.775 340.861C495.64 337.442 488.369 321.31 488.031 320.636C487.935 320.443 487.935 320.203 488.031 320.01L496.362 304.456C496.507 304.167 496.796 304.022 497.085 304.071C497.374 304.119 497.614 304.36 497.662 304.649C497.711 304.841 501.996 326.126 510.761 328.774C519.332 331.375 523.185 321.647 523.329 321.262C523.474 320.925 523.859 320.732 524.244 320.829L528.289 322.177C528.578 322.273 528.771 322.562 528.771 322.851C528.819 329.063 526.026 335.034 521.499 338.453C519.621 339.994 516.587 341.535 512.542 341.535ZM489.524 320.347C490.632 322.61 497.614 336.479 508.16 339.465C514.035 341.102 518.273 339.224 520.777 337.298C524.822 334.216 527.326 328.919 527.47 323.381L524.533 322.418C523.57 324.44 520.055 330.652 513.698 330.652C512.687 330.652 511.627 330.508 510.472 330.171C502.43 327.763 498.096 312.353 496.796 306.864L489.524 320.347Z" fill="black"/>
<path d="M444.405 304.409C444.405 304.409 451.773 294.826 472.479 296.608C497.279 298.727 499.157 303.639 499.157 303.639L492.704 316.785L500.313 349.868C500.313 349.868 495.112 354.153 482.977 351.746C470.842 349.338 449.943 346.352 444.453 348.038L452.158 316.496L444.405 304.409Z" fill="white"/>
<path d="M490.006 353.19C487.935 353.19 485.575 352.997 482.831 352.419C470.551 349.964 449.893 347.122 444.644 348.711C444.403 348.808 444.114 348.711 443.921 348.567C443.729 348.374 443.632 348.134 443.729 347.893L451.337 316.64L443.825 304.842C443.681 304.601 443.681 304.264 443.873 304.024C444.162 303.638 451.674 294.152 472.622 295.934C497.133 298.052 499.685 302.868 499.926 303.446C500.022 303.638 499.974 303.831 499.877 304.024L493.521 316.881L501.033 349.723C501.081 350.012 500.985 350.252 500.792 350.445C500.6 350.541 497.277 353.19 490.006 353.19ZM449.459 346.833C458.031 346.833 472.959 349 483.071 351.023C492.943 352.997 498.096 350.349 499.444 349.53L491.98 316.929C491.932 316.785 491.98 316.592 492.028 316.448L498.288 303.735C497.47 302.82 492.943 299.16 472.381 297.378C454.66 295.837 446.859 302.82 445.27 304.505L452.686 316.062C452.782 316.207 452.83 316.448 452.782 316.64L445.366 347.074C446.474 346.882 447.87 346.833 449.459 346.833Z" fill="black"/>
<path d="M521.979 334.217L492.412 335.421C491.401 335.421 490.775 334.313 491.305 333.495L510.47 298.486C510.855 297.908 511.481 297.523 512.204 297.523L542.108 298.197L521.979 334.217Z" fill="#CADDFF"/>
<path d="M524.099 335.421H492.172L513.12 297.523H545.046L524.099 335.421Z" fill="#99B9FF"/>
<path d="M524.103 336.143H492.176C491.935 336.143 491.695 335.998 491.55 335.806C491.406 335.565 491.406 335.324 491.55 335.083L512.498 297.185C512.642 296.945 512.883 296.8 513.124 296.8H545.05C545.291 296.8 545.532 296.945 545.677 297.137C545.821 297.378 545.821 297.619 545.677 297.859L524.729 335.757C524.633 335.998 524.392 336.143 524.103 336.143ZM493.428 334.698H523.718L543.847 298.245H513.557L493.428 334.698Z" fill="black"/>
<path d="M524.82 334.216C524.82 334.216 524.242 331.086 524.82 328.967C525.398 326.848 529.154 320.636 530.214 319.336C531.273 318.036 532.188 331.952 524.82 334.216Z" fill="white"/>
<path d="M524.821 334.938C524.677 334.938 524.581 334.89 524.436 334.841C524.243 334.745 524.147 334.552 524.099 334.36C524.051 334.215 523.473 331.037 524.099 328.774C524.725 326.559 528.433 320.299 529.637 318.854C529.926 318.469 530.359 318.469 530.648 318.565C531.37 318.854 531.708 320.299 531.659 322.851C531.515 327.714 529.685 333.445 525.062 334.89C524.966 334.938 524.918 334.938 524.821 334.938ZM530.118 320.684C528.674 322.851 525.977 327.474 525.544 329.159C525.158 330.411 525.303 332.193 525.447 333.204C527.037 332.434 528.24 330.989 529.107 328.774C530.263 325.74 530.311 322.369 530.118 320.684Z" fill="black"/>
<path d="M458.27 286.253C457.981 285.82 459.282 283.46 459.33 282.593C459.378 281.726 458.704 281.004 458.415 280.089C458.126 279.174 458.463 277.585 458.463 277.585C458.848 266.798 470.598 269.35 470.598 269.35C473.295 270.169 474.884 273.203 475.414 275.225C476.425 279.126 474.547 283.845 474.547 283.845C474.643 284.038 476.569 296.654 476.617 296.799C477.821 299.158 469.635 300.699 467.083 298.34C466.216 297.521 467.324 291.694 467.083 291.646C466.12 291.598 464.916 292.658 463.712 292.32C461.93 291.839 460.582 287.36 460.341 287.023C460.197 286.879 459.811 286.783 459.378 286.686C458.945 286.59 458.415 286.494 458.27 286.253Z" fill="white"/>
<path d="M471.273 300.219C469.491 300.219 467.709 299.834 466.65 298.871C465.927 298.197 465.975 296.511 466.313 293.188C466.313 292.996 466.361 292.803 466.361 292.611C466.264 292.659 466.168 292.707 466.072 292.707C465.349 292.996 464.483 293.333 463.568 293.092C462.027 292.707 460.967 290.444 460.004 288.084C459.956 287.891 459.86 287.699 459.812 287.602C459.667 287.554 459.426 287.506 459.282 287.458C458.608 287.314 457.982 287.169 457.693 286.688C457.356 286.158 457.596 285.484 458.126 284.135C458.319 283.606 458.608 282.883 458.656 282.594C458.656 282.257 458.463 281.872 458.271 281.439C458.126 281.102 457.934 280.764 457.789 280.331C457.5 279.368 457.741 277.875 457.789 277.538C457.934 274.36 458.993 271.952 461.016 270.411C464.82 267.426 470.55 268.629 470.791 268.726H470.839C473.777 269.592 475.51 272.723 476.136 275.082C477.099 278.742 475.703 282.98 475.318 283.943C475.414 284.472 475.655 285.869 476.281 289.914C476.714 292.659 477.244 296.078 477.34 296.607C477.725 297.426 477.436 298.245 476.618 298.919C475.51 299.689 473.391 300.219 471.273 300.219ZM467.661 297.811C469.394 299.352 474.21 298.871 475.751 297.715C476.184 297.378 476.088 297.233 476.04 297.137C475.944 296.993 475.944 296.945 474.884 290.058C474.451 287.362 473.969 284.376 473.921 283.991C473.873 283.846 473.873 283.654 473.921 283.509C473.921 283.461 475.655 278.935 474.74 275.323C474.306 273.686 472.958 270.748 470.454 269.978C470.069 269.881 465.061 268.966 461.882 271.422C460.197 272.723 459.33 274.793 459.234 277.538C459.234 277.586 459.234 277.634 459.234 277.634C459.137 278.212 458.993 279.272 459.186 279.801C459.282 280.09 459.426 280.379 459.571 280.668C459.86 281.198 460.149 281.824 460.149 282.546C460.101 283.028 459.812 283.75 459.523 284.521C459.378 284.906 459.137 285.435 459.089 285.773C459.282 285.821 459.523 285.869 459.667 285.917C460.293 286.062 460.775 286.158 461.064 286.543C461.16 286.688 461.256 286.88 461.497 287.458C461.882 288.421 463.038 291.31 464.097 291.599C464.579 291.744 465.109 291.503 465.687 291.262C466.216 291.07 466.746 290.829 467.276 290.877C467.468 290.877 467.661 290.973 467.805 291.118C468.094 291.407 468.046 291.647 467.902 293.237C467.661 294.392 467.324 297.282 467.661 297.811Z" fill="black"/>
<path d="M453.552 270.073C454.756 268.869 455.911 270.073 460.631 269.399C464.531 268.869 465.639 267.762 468.624 268.243C469.443 268.388 470.936 268.628 472.38 269.688C474.547 271.277 475.366 273.492 475.799 275.178C476.618 278.404 475.607 282.208 475.125 283.653C475.029 283.99 474.644 284.231 474.307 284.183C473.343 284.086 472.428 283.99 471.658 283.797C471.273 283.701 471.08 283.316 471.225 282.979C471.273 282.882 471.321 282.786 471.321 282.69C471.706 281.341 471.032 279.945 469.876 279.608C468.672 279.271 467.372 280.089 466.987 281.486C466.939 281.582 466.939 281.678 466.939 281.775C465.205 280.475 464.338 278.982 462.749 278.211C462.557 278.115 461.738 277.73 460.438 277.682C457.645 277.585 456.73 279.223 455.43 278.885C453.118 278.308 451.433 272.24 453.552 270.073Z" fill="black"/>
<path d="M466.842 292.369C466.554 292.369 466.265 292.177 466.168 291.888C466.072 291.503 466.265 291.117 466.65 290.973C470.213 289.865 470.743 287.65 470.791 287.554C470.888 287.169 471.273 286.928 471.658 287.024C472.043 287.12 472.284 287.506 472.188 287.891C472.14 288.035 471.465 290.973 467.083 292.369C466.987 292.369 466.939 292.369 466.842 292.369Z" fill="black"/>
<path opacity="0.7" d="M382.067 256.087H294.142C290.556 256.097 287.12 257.526 284.584 260.062C282.048 262.598 280.618 266.035 280.608 269.621V278.651C280.618 282.237 282.048 285.674 284.584 288.21C287.12 290.745 290.556 292.175 294.142 292.185H382.067L395.602 300.207V269.582C395.578 266.003 394.143 262.578 391.609 260.051C389.075 257.524 385.646 256.1 382.067 256.087Z" fill="white"/>
<path d="M379.617 269.019H296.543V271.271H379.617V269.019Z" fill="#5479F7"/>
<path d="M379.617 277.001H312.528V279.253H379.617V277.001Z" fill="#5479F7"/>
<path d="M294.094 318.325H382.018C385.605 318.336 389.041 319.765 391.577 322.301C394.113 324.837 395.543 328.274 395.553 331.86V340.88C395.543 344.466 394.113 347.902 391.577 350.438C389.041 352.974 385.605 354.404 382.018 354.414H294.094L280.559 362.436V331.811C280.58 328.232 282.014 324.807 284.549 322.281C287.085 319.755 290.515 318.333 294.094 318.325Z" fill="white"/>
<path opacity="0.5" d="M379.618 331.247H296.544V333.5H379.618V331.247Z" fill="#407BFF"/>
<path opacity="0.5" d="M335.072 339.239H296.544V341.491H335.072V339.239Z" fill="#407BFF"/>
<path opacity="0.5" d="M356.758 339.239H341.089V341.491H356.758V339.239Z" fill="#407BFF"/>
<defs>
<radialGradient id="paint0_radial" cx="0" cy="0" r="1" gradientUnits="userSpaceOnUse" gradientTransform="translate(320.376 143.556) scale(17.4055)">
<stop offset="0.09" stop-color="#FA8F21"/>
<stop offset="0.78" stop-color="#D82D7E"/>
</radialGradient>
<clipPath id="clip0">
<rect width="26.941" height="26.941" fill="white" transform="translate(227.246 115.346)"/>
</clipPath>
<clipPath id="clip1">
<rect width="22.4417" height="22.4417" fill="white" transform="translate(466.753 147.445)"/>
</clipPath>
<clipPath id="clip2">
<rect width="28.1482" height="28.1482" fill="white" transform="translate(392.935 118.458) rotate(6.04862)"/>
</clipPath>
<clipPath id="clip3">
<rect width="13.3333" height="13.3333" fill="white" transform="translate(318.605 130.16)"/>
</clipPath>
</defs>
</svg>
